<svg width="213" height="73" viewBox="0 0 213 73" fill="none" xmlns="http://www.w3.org/2000/svg">
<mask id="path-1-outside-1_993_2434" maskUnits="userSpaceOnUse" x="0" y="0" width="213" height="73" fill="black">
<rect fill="white" width="213" height="73"/>
<path d="M37.92 70.08L35.52 59.68H17.2L14.72 70.08H2.64L20.08 2H33.12L49.92 70.08H37.92ZM26.24 21.76L19.6 49.6H33.2L26.88 21.76H26.24ZM105.759 2V50.32C105.759 61.2 97.0394 70.08 86.0794 70.08H78.3194C67.4394 70.08 58.4794 61.2 58.4794 50.32V2H70.7994V49.6C70.7994 54.32 74.5594 58.24 79.1994 58.24H85.1194C89.7594 58.24 93.5194 54.32 93.5194 49.6V2H105.759ZM129.044 70.08V14.56H111.604V2H158.804V14.56H141.204V70.08H129.044ZM198.311 70.08L195.911 59.68H177.591L175.111 70.08H163.031L180.471 2H193.511L210.311 70.08H198.311ZM186.631 21.76L179.991 49.6H193.591L187.271 21.76H186.631Z"/>
</mask>
<path d="M37.92 70.08L35.52 59.68H17.2L14.72 70.08H2.64L20.08 2H33.12L49.92 70.08H37.92ZM26.24 21.76L19.6 49.6H33.2L26.88 21.76H26.24ZM105.759 2V50.32C105.759 61.2 97.0394 70.08 86.0794 70.08H78.3194C67.4394 70.08 58.4794 61.2 58.4794 50.32V2H70.7994V49.6C70.7994 54.32 74.5594 58.24 79.1994 58.24H85.1194C89.7594 58.24 93.5194 54.32 93.5194 49.6V2H105.759ZM129.044 70.08V14.56H111.604V2H158.804V14.56H141.204V70.08H129.044ZM198.311 70.08L195.911 59.68H177.591L175.111 70.08H163.031L180.471 2H193.511L210.311 70.08H198.311ZM186.631 21.76L179.991 49.6H193.591L187.271 21.76H186.631Z" fill="black"/>
<path d="M37.92 70.08L35.9712 70.5297L36.329 72.08H37.92V70.08ZM35.52 59.68L37.4688 59.2303L37.111 57.68H35.52V59.68ZM17.2 59.68V57.68H15.6208L15.2545 59.2161L17.2 59.68ZM14.72 70.08V72.08H16.2992L16.6655 70.5439L14.72 70.08ZM2.64 70.08L0.70256 69.5837L0.0630815 72.08H2.64V70.08ZM20.08 2V-3.8147e-06H18.5278L18.1426 1.50368L20.08 2ZM33.12 2L35.0618 1.52083L34.6865 -3.8147e-06H33.12V2ZM49.92 70.08V72.08H52.4735L51.8618 69.6008L49.92 70.08ZM26.24 21.76V19.76H24.6609L24.2946 21.296L26.24 21.76ZM19.6 49.6L17.6546 49.136L17.0669 51.6H19.6V49.6ZM33.2 49.6V51.6H35.7049L35.1504 49.1572L33.2 49.6ZM26.88 21.76L28.8304 21.3172L28.4769 19.76H26.88V21.76ZM37.92 70.08L39.8688 69.6303L37.4688 59.2303L35.52 59.68L33.5712 60.1297L35.9712 70.5297L37.92 70.08ZM35.52 59.68V57.68H17.2V59.68V61.68H35.52V59.68ZM17.2 59.68L15.2545 59.2161L12.7745 69.6161L14.72 70.08L16.6655 70.5439L19.1455 60.1439L17.2 59.68ZM14.72 70.08V68.08H2.64V70.08V72.08H14.72V70.08ZM2.64 70.08L4.57744 70.5763L22.0174 2.49631L20.08 2L18.1426 1.50368L0.70256 69.5837L2.64 70.08ZM20.08 2V4H33.12V2V-3.8147e-06H20.08V2ZM33.12 2L31.1782 2.47916L47.9782 70.5592L49.92 70.08L51.8618 69.6008L35.0618 1.52083L33.12 2ZM49.92 70.08V68.08H37.92V70.08V72.08H49.92V70.08ZM26.24 21.76L24.2946 21.296L17.6546 49.136L19.6 49.6L21.5454 50.064L28.1854 22.224L26.24 21.76ZM19.6 49.6V51.6H33.2V49.6V47.6H19.6V49.6ZM33.2 49.6L35.1504 49.1572L28.8304 21.3172L26.88 21.76L24.9296 22.2028L31.2496 50.0428L33.2 49.6ZM26.88 21.76V19.76H26.24V21.76V23.76H26.88V21.76ZM105.759 2H107.759V-3.8147e-06H105.759V2ZM58.4794 2V-3.8147e-06H56.4794V2H58.4794ZM70.7994 2H72.7994V-3.8147e-06H70.7994V2ZM93.5194 2V-3.8147e-06H91.5194V2H93.5194ZM105.759 2H103.759V50.32H105.759H107.759V2H105.759ZM105.759 50.32H103.759C103.759 60.1113 95.919 68.08 86.0794 68.08V70.08V72.08C98.1598 72.08 107.759 62.2887 107.759 50.32H105.759ZM86.0794 70.08V68.08H78.3194V70.08V72.08H86.0794V70.08ZM78.3194 70.08V68.08C68.5334 68.08 60.4794 60.0849 60.4794 50.32H58.4794H56.4794C56.4794 62.3151 66.3453 72.08 78.3194 72.08V70.08ZM58.4794 50.32H60.4794V2H58.4794H56.4794V50.32H58.4794ZM58.4794 2V4H70.7994V2V-3.8147e-06H58.4794V2ZM70.7994 2H68.7994V49.6H70.7994H72.7994V2H70.7994ZM70.7994 49.6H68.7994C68.7994 55.3631 73.3943 60.24 79.1994 60.24V58.24V56.24C75.7245 56.24 72.7994 53.2769 72.7994 49.6H70.7994ZM79.1994 58.24V60.24H85.1194V58.24V56.24H79.1994V58.24ZM85.1194 58.24V60.24C90.9245 60.24 95.5194 55.3631 95.5194 49.6H93.5194H91.5194C91.5194 53.2769 88.5943 56.24 85.1194 56.24V58.24ZM93.5194 49.6H95.5194V2H93.5194H91.5194V49.6H93.5194ZM93.5194 2V4H105.759V2V-3.8147e-06H93.5194V2ZM129.044 70.08H127.044V72.08H129.044V70.08ZM129.044 14.56H131.044V12.56H129.044V14.56ZM111.604 14.56H109.604V16.56H111.604V14.56ZM111.604 2V-3.8147e-06H109.604V2H111.604ZM158.804 2H160.804V-3.8147e-06H158.804V2ZM158.804 14.56V16.56H160.804V14.56H158.804ZM141.204 14.56V12.56H139.204V14.56H141.204ZM141.204 70.08V72.08H143.204V70.08H141.204ZM129.044 70.08H131.044V14.56H129.044H127.044V70.08H129.044ZM129.044 14.56V12.56H111.604V14.56V16.56H129.044V14.56ZM111.604 14.56H113.604V2H111.604H109.604V14.56H111.604ZM111.604 2V4H158.804V2V-3.8147e-06H111.604V2ZM158.804 2H156.804V14.56H158.804H160.804V2H158.804ZM158.804 14.56V12.56H141.204V14.56V16.56H158.804V14.56ZM141.204 14.56H139.204V70.08H141.204H143.204V14.56H141.204ZM141.204 70.08V68.08H129.044V70.08V72.08H141.204V70.08ZM198.311 70.08L196.362 70.5297L196.72 72.08H198.311V70.08ZM195.911 59.68L197.859 59.2303L197.502 57.68H195.911V59.68ZM177.591 59.68V57.68H176.011L175.645 59.2161L177.591 59.68ZM175.111 70.08V72.08H176.69L177.056 70.5439L175.111 70.08ZM163.031 70.08L161.093 69.5837L160.454 72.08H163.031V70.08ZM180.471 2V-3.8147e-06H178.918L178.533 1.50368L180.471 2ZM193.511 2L195.452 1.52083L195.077 -3.8147e-06H193.511V2ZM210.311 70.08V72.08H212.864L212.252 69.6008L210.311 70.08ZM186.631 21.76V19.76H185.052L184.685 21.296L186.631 21.76ZM179.991 49.6L178.045 49.136L177.458 51.6H179.991V49.6ZM193.591 49.6V51.6H196.096L195.541 49.1572L193.591 49.6ZM187.271 21.76L189.221 21.3172L188.867 19.76H187.271V21.76ZM198.311 70.08L200.259 69.6303L197.859 59.2303L195.911 59.68L193.962 60.1297L196.362 70.5297L198.311 70.08ZM195.911 59.68V57.68H177.591V59.68V61.68H195.911V59.68ZM177.591 59.68L175.645 59.2161L173.165 69.6161L175.111 70.08L177.056 70.5439L179.536 60.1439L177.591 59.68ZM175.111 70.08V68.08H163.031V70.08V72.08H175.111V70.08ZM163.031 70.08L164.968 70.5763L182.408 2.49631L180.471 2L178.533 1.50368L161.093 69.5837L163.031 70.08ZM180.471 2V4H193.511V2V-3.8147e-06H180.471V2ZM193.511 2L191.569 2.47916L208.369 70.5592L210.311 70.08L212.252 69.6008L195.452 1.52083L193.511 2ZM210.311 70.08V68.08H198.311V70.08V72.08H210.311V70.08ZM186.631 21.76L184.685 21.296L178.045 49.136L179.991 49.6L181.936 50.064L188.576 22.224L186.631 21.76ZM179.991 49.6V51.6H193.591V49.6V47.6H179.991V49.6ZM193.591 49.6L195.541 49.1572L189.221 21.3172L187.271 21.76L185.32 22.2028L191.64 50.0428L193.591 49.6ZM187.271 21.76V19.76H186.631V21.76V23.76H187.271V21.76Z" fill="black" mask="url(#path-1-outside-1_993_2434)"/>
</svg>
