<svg width="530" height="179" viewBox="0 0 530 179" fill="none" xmlns="http://www.w3.org/2000/svg">
<mask id="path-1-outside-1_993_3405" maskUnits="userSpaceOnUse" x="0" y="0" width="530" height="179" fill="black">
<rect fill="white" width="530" height="179"/>
<path d="M93.8 174.2L87.8 148.2H42L35.8 174.2H5.6L49.2 3.99999H81.8L123.8 174.2H93.8ZM64.6 53.4L48 123H82L66.2 53.4H64.6ZM263.398 3.99999V124.8C263.398 152 241.598 174.2 214.198 174.2H194.798C167.598 174.2 145.198 152 145.198 124.8V3.99999H175.998V123C175.998 134.8 185.398 144.6 196.998 144.6H211.798C223.398 144.6 232.798 134.8 232.798 123V3.99999H263.398ZM321.609 174.2V35.4H278.009V3.99999H396.009V35.4H352.009V174.2H321.609ZM494.777 174.2L488.777 148.2H442.977L436.777 174.2H406.577L450.177 3.99999H482.777L524.777 174.2H494.777ZM465.577 53.4L448.977 123H482.977L467.177 53.4H465.577Z"/>
</mask>
<path d="M93.8 174.2L87.8 148.2H42L35.8 174.2H5.6L49.2 3.99999H81.8L123.8 174.2H93.8ZM64.6 53.4L48 123H82L66.2 53.4H64.6ZM263.398 3.99999V124.8C263.398 152 241.598 174.2 214.198 174.2H194.798C167.598 174.2 145.198 152 145.198 124.8V3.99999H175.998V123C175.998 134.8 185.398 144.6 196.998 144.6H211.798C223.398 144.6 232.798 134.8 232.798 123V3.99999H263.398ZM321.609 174.2V35.4H278.009V3.99999H396.009V35.4H352.009V174.2H321.609ZM494.777 174.2L488.777 148.2H442.977L436.777 174.2H406.577L450.177 3.99999H482.777L524.777 174.2H494.777ZM465.577 53.4L448.977 123H482.977L467.177 53.4H465.577Z" fill="black"/>
<path d="M93.8 174.2L89.9024 175.099L90.618 178.2H93.8V174.2ZM87.8 148.2L91.6976 147.301L90.9821 144.2H87.8V148.2ZM42 148.2V144.2H38.8417L38.1091 147.272L42 148.2ZM35.8 174.2V178.2H38.9583L39.6909 175.128L35.8 174.2ZM5.6 174.2L1.72512 173.207L0.446163 178.2H5.6V174.2ZM49.2 3.99999V-7.62939e-06H46.0955L45.3251 3.00737L49.2 3.99999ZM81.8 3.99999L85.6835 3.04166L84.9329 -7.62939e-06H81.8V3.99999ZM123.8 174.2V178.2H128.907L127.684 173.242L123.8 174.2ZM64.6 53.4V49.4H61.4418L60.7091 52.472L64.6 53.4ZM48 123L44.1091 122.072L42.9338 127H48V123ZM82 123V127H87.0098L85.9008 122.114L82 123ZM66.2 53.4L70.1008 52.5145L69.3937 49.4H66.2V53.4ZM93.8 174.2L97.6976 173.301L91.6976 147.301L87.8 148.2L83.9024 149.099L89.9024 175.099L93.8 174.2ZM87.8 148.2V144.2H42V148.2V152.2H87.8V148.2ZM42 148.2L38.1091 147.272L31.9091 173.272L35.8 174.2L39.6909 175.128L45.8909 149.128L42 148.2ZM35.8 174.2V170.2H5.6V174.2V178.2H35.8V174.2ZM5.6 174.2L9.47488 175.193L53.0749 4.99261L49.2 3.99999L45.3251 3.00737L1.72512 173.207L5.6 174.2ZM49.2 3.99999V7.99999H81.8V3.99999V-7.62939e-06H49.2V3.99999ZM81.8 3.99999L77.9165 4.95832L119.916 175.158L123.8 174.2L127.684 173.242L85.6835 3.04166L81.8 3.99999ZM123.8 174.2V170.2H93.8V174.2V178.2H123.8V174.2ZM64.6 53.4L60.7091 52.472L44.1091 122.072L48 123L51.8909 123.928L68.4909 54.328L64.6 53.4ZM48 123V127H82V123V119H48V123ZM82 123L85.9008 122.114L70.1008 52.5145L66.2 53.4L62.2993 54.2855L78.0993 123.886L82 123ZM66.2 53.4V49.4H64.6V53.4V57.4H66.2V53.4ZM263.398 3.99999H267.398V-7.62939e-06H263.398V3.99999ZM145.198 3.99999V-7.62939e-06H141.198V3.99999H145.198ZM175.998 3.99999H179.998V-7.62939e-06H175.998V3.99999ZM232.798 3.99999V-7.62939e-06H228.798V3.99999H232.798ZM263.398 3.99999H259.398V124.8H263.398H267.398V3.99999H263.398ZM263.398 124.8H259.398C259.398 149.823 239.358 170.2 214.198 170.2V174.2V178.2C243.839 178.2 267.398 154.177 267.398 124.8H263.398ZM214.198 174.2V170.2H194.798V174.2V178.2H214.198V174.2ZM194.798 174.2V170.2C169.787 170.2 149.198 149.77 149.198 124.8H145.198H141.198C141.198 154.23 165.41 178.2 194.798 178.2V174.2ZM145.198 124.8H149.198V3.99999H145.198H141.198V124.8H145.198ZM145.198 3.99999V7.99999H175.998V3.99999V-7.62939e-06H145.198V3.99999ZM175.998 3.99999H171.998V123H175.998H179.998V3.99999H175.998ZM175.998 123H171.998C171.998 136.886 183.068 148.6 196.998 148.6V144.6V140.6C187.729 140.6 179.998 132.714 179.998 123H175.998ZM196.998 144.6V148.6H211.798V144.6V140.6H196.998V144.6ZM211.798 144.6V148.6C225.729 148.6 236.798 136.886 236.798 123H232.798H228.798C228.798 132.714 221.068 140.6 211.798 140.6V144.6ZM232.798 123H236.798V3.99999H232.798H228.798V123H232.798ZM232.798 3.99999V7.99999H263.398V3.99999V-7.62939e-06H232.798V3.99999ZM321.609 174.2H317.609V178.2H321.609V174.2ZM321.609 35.4H325.609V31.4H321.609V35.4ZM278.009 35.4H274.009V39.4H278.009V35.4ZM278.009 3.99999V-7.62939e-06H274.009V3.99999H278.009ZM396.009 3.99999H400.009V-7.62939e-06H396.009V3.99999ZM396.009 35.4V39.4H400.009V35.4H396.009ZM352.009 35.4V31.4H348.009V35.4H352.009ZM352.009 174.2V178.2H356.009V174.2H352.009ZM321.609 174.2H325.609V35.4H321.609H317.609V174.2H321.609ZM321.609 35.4V31.4H278.009V35.4V39.4H321.609V35.4ZM278.009 35.4H282.009V3.99999H278.009H274.009V35.4H278.009ZM278.009 3.99999V7.99999H396.009V3.99999V-7.62939e-06H278.009V3.99999ZM396.009 3.99999H392.009V35.4H396.009H400.009V3.99999H396.009ZM396.009 35.4V31.4H352.009V35.4V39.4H396.009V35.4ZM352.009 35.4H348.009V174.2H352.009H356.009V35.4H352.009ZM352.009 174.2V170.2H321.609V174.2V178.2H352.009V174.2ZM494.777 174.2L490.879 175.099L491.595 178.2H494.777V174.2ZM488.777 148.2L492.674 147.301L491.959 144.2H488.777V148.2ZM442.977 148.2V144.2H439.818L439.086 147.272L442.977 148.2ZM436.777 174.2V178.2H439.935L440.667 175.128L436.777 174.2ZM406.577 174.2L402.702 173.207L401.423 178.2H406.577V174.2ZM450.177 3.99999V-7.62939e-06H447.072L446.302 3.00737L450.177 3.99999ZM482.777 3.99999L486.66 3.04166L485.909 -7.62939e-06H482.777V3.99999ZM524.777 174.2V178.2H529.884L528.66 173.242L524.777 174.2ZM465.577 53.4V49.4H462.418L461.686 52.472L465.577 53.4ZM448.977 123L445.086 122.072L443.91 127H448.977V123ZM482.977 123V127H487.986L486.877 122.114L482.977 123ZM467.177 53.4L471.077 52.5145L470.37 49.4H467.177V53.4ZM494.777 174.2L498.674 173.301L492.674 147.301L488.777 148.2L484.879 149.099L490.879 175.099L494.777 174.2ZM488.777 148.2V144.2H442.977V148.2V152.2H488.777V148.2ZM442.977 148.2L439.086 147.272L432.886 173.272L436.777 174.2L440.667 175.128L446.867 149.128L442.977 148.2ZM436.777 174.2V170.2H406.577V174.2V178.2H436.777V174.2ZM406.577 174.2L410.451 175.193L454.051 4.99261L450.177 3.99999L446.302 3.00737L402.702 173.207L406.577 174.2ZM450.177 3.99999V7.99999H482.777V3.99999V-7.62939e-06H450.177V3.99999ZM482.777 3.99999L478.893 4.95832L520.893 175.158L524.777 174.2L528.66 173.242L486.66 3.04166L482.777 3.99999ZM524.777 174.2V170.2H494.777V174.2V178.2H524.777V174.2ZM465.577 53.4L461.686 52.472L445.086 122.072L448.977 123L452.867 123.928L469.467 54.328L465.577 53.4ZM448.977 123V127H482.977V123V119H448.977V123ZM482.977 123L486.877 122.114L471.077 52.5145L467.177 53.4L463.276 54.2855L479.076 123.886L482.977 123ZM467.177 53.4V49.4H465.577V53.4V57.4H467.177V53.4Z" fill="black" mask="url(#path-1-outside-1_993_3405)"/>
</svg>
