<svg width="21" height="26" viewBox="0 0 21 26" fill="none" xmlns="http://www.w3.org/2000/svg">
<path d="M10.4913 4.15161C12.3016 4.15161 14.0378 4.79085 15.3179 5.92871C16.598 7.06655 17.3171 8.60982 17.3171 10.219C17.3171 12.708 17.8797 14.5718 18.6093 15.9424C19.5414 17.6936 20.0075 18.5692 19.9816 18.7692C19.9513 19.0027 19.9128 19.0669 19.7209 19.2031C19.5565 19.3201 18.7385 19.3201 17.1025 19.3201H3.88007C2.24405 19.3201 1.42606 19.3201 1.26162 19.2031C1.0698 19.0669 1.03126 19.0027 1.00103 18.7692C0.9751 18.5692 1.44116 17.6936 2.3733 15.9424C3.10287 14.5718 3.66548 12.708 3.66548 10.219C3.66548 8.60982 4.38463 7.06655 5.6647 5.92871C6.94479 4.79085 8.68094 4.15161 10.4913 4.15161ZM10.4913 4.15161V1.62354M7.14663 23.1122C8.03931 23.9 9.21196 24.3782 10.4963 24.3782C11.7806 24.3782 12.9533 23.9 13.846 23.1122" stroke="black" stroke-width="1.5" stroke-linecap="round" stroke-linejoin="round"/>
</svg>
