<svg width="36" height="35" viewBox="0 0 36 35" fill="none" xmlns="http://www.w3.org/2000/svg">
<path d="M9.70857 7.02686C9.36136 7.02686 9.02836 7.16479 8.78285 7.4103C8.53733 7.65582 8.3994 7.98881 8.3994 8.33603V21.4277C8.3994 21.7749 8.53733 22.1079 8.78285 22.3535C9.02836 22.599 9.36136 22.7369 9.70857 22.7369C10.0558 22.7369 10.3888 22.599 10.6343 22.3535C10.8798 22.1079 11.0177 21.7749 11.0177 21.4277V8.33603C11.0177 7.98881 10.8798 7.65582 10.6343 7.4103C10.3888 7.16479 10.0558 7.02686 9.70857 7.02686ZM18 7.02686C17.6528 7.02686 17.3198 7.16479 17.0743 7.4103C16.8287 7.65582 16.6908 7.98881 16.6908 8.33603V16.1911C16.6908 16.5383 16.8287 16.8713 17.0743 17.1168C17.3198 17.3623 17.6528 17.5002 18 17.5002C18.3472 17.5002 18.6802 17.3623 18.9257 17.1168C19.1712 16.8713 19.3092 16.5383 19.3092 16.1911V8.33603C19.3092 7.98881 19.1712 7.65582 18.9257 7.4103C18.6802 7.16479 18.3472 7.02686 18 7.02686ZM24.9822 8.33603C24.9822 7.98881 25.1202 7.65582 25.3657 7.4103C25.6112 7.16479 25.9442 7.02686 26.2914 7.02686C26.6386 7.02686 26.9716 7.16479 27.2171 7.4103C27.4626 7.65582 27.6006 7.98881 27.6006 8.33603V24.9189C27.6006 25.2661 27.4626 25.5991 27.2171 25.8446C26.9716 26.0901 26.6386 26.228 26.2914 26.228C25.9442 26.228 25.6112 26.0901 25.3657 25.8446C25.1202 25.5991 24.9822 25.2661 24.9822 24.9189V8.33603Z" fill="#191919"/>
<path d="M3.59913 0.0444336H32.4009C34.0871 0.0444336 35.4556 1.41295 35.4556 3.09916V31.9009C35.4556 32.7111 35.1338 33.4881 34.5609 34.0609C33.988 34.6338 33.211 34.9556 32.4009 34.9556H3.59913C2.78897 34.9556 2.01199 34.6338 1.43911 34.0609C0.86624 33.4881 0.544403 32.7111 0.544403 31.9009V3.09916C0.544403 1.41295 1.91292 0.0444336 3.59913 0.0444336ZM3.16274 3.09916V31.9009C3.16274 32.1418 3.35825 32.3373 3.59913 32.3373H32.4009C32.5166 32.3373 32.6276 32.2913 32.7095 32.2095C32.7913 32.1277 32.8373 32.0167 32.8373 31.9009V3.09916C32.8373 2.98343 32.7913 2.87243 32.7095 2.79059C32.6276 2.70875 32.5166 2.66277 32.4009 2.66277H3.59913C3.4834 2.66277 3.3724 2.70875 3.29056 2.79059C3.20872 2.87243 3.16274 2.98343 3.16274 3.09916Z" fill="#191919"/>
</svg>
