<svg width="32" height="38" viewBox="0 0 32 38" fill="none" xmlns="http://www.w3.org/2000/svg">
<path d="M27.0244 12.5406C26.8081 10.0049 25.7293 7.61999 23.9677 5.78334C22.2061 3.94669 19.8682 2.76932 17.3437 2.4475V1.42188C17.3437 1.04891 17.1956 0.691229 16.9319 0.427506C16.6681 0.163783 16.3105 0.015625 15.9375 0.015625C15.5645 0.015625 15.2069 0.163783 14.9431 0.427506C14.6794 0.691229 14.5312 1.04891 14.5312 1.42188V2.4475C12.0065 2.7694 9.66839 3.94704 7.90677 5.78407C6.14515 7.62109 5.06648 10.0065 4.85062 12.5425L4.37812 16.3525L4.37625 16.3713C4.19772 18.495 3.23924 20.4774 1.68563 21.9363L1.66687 21.955C1.215 22.3769 0.72375 22.8363 0.410625 23.7531C0.121875 24.6025 0 25.7987 0 27.7C0 28.3431 0.11625 28.9263 0.40875 29.4156C0.710625 29.9219 1.14562 30.2388 1.61437 30.4375C2.06437 30.6269 2.56125 30.7188 3.03375 30.7787C3.35062 30.8181 3.70312 30.8481 4.05562 30.8781L4.54125 30.9212C7.15125 31.1669 11.0362 31.4219 15.9375 31.4219C19.9046 31.4312 23.8698 31.2497 27.8194 30.8781C28.1719 30.8481 28.5262 30.8181 28.8412 30.7787C29.3137 30.7188 29.8106 30.6287 30.2606 30.4375C30.7627 30.2366 31.1858 29.878 31.4662 29.4156C31.7587 28.9263 31.875 28.3431 31.875 27.7C31.875 25.7987 31.7531 24.6025 31.4625 23.7531C31.1512 22.8363 30.66 22.3769 30.21 21.9531L30.1912 21.9363C28.6369 20.4777 27.6778 18.4952 27.4987 16.3713V16.3525L27.0244 12.5406ZM15.9375 4.23438C18.258 4.23434 20.4938 5.1064 22.2015 6.67759C23.9092 8.24879 24.964 10.4044 25.1569 12.7169V12.7356L25.6312 16.5456C25.8523 19.1256 27.0189 21.5329 28.9069 23.305C29.3381 23.7081 29.5312 23.8975 29.6887 24.3569C29.8706 24.895 30 25.8231 30 27.7C30 28.1312 29.9212 28.3469 29.8575 28.4538C29.8012 28.5475 29.7131 28.6319 29.5275 28.7106C29.3212 28.7988 29.0287 28.8644 28.6087 28.9169C28.3275 28.9544 28.0369 28.9788 27.7087 29.0069L27.1575 29.0556C23.427 29.3917 19.6831 29.5556 15.9375 29.5469C11.1 29.5469 7.275 29.2956 4.7175 29.0556L4.16625 29.0069C3.86577 28.9827 3.56572 28.9533 3.26625 28.9188C2.95255 28.8889 2.64387 28.8196 2.3475 28.7125C2.16 28.6319 2.07375 28.5475 2.0175 28.4538C1.95375 28.3469 1.875 28.1312 1.875 27.7C1.875 25.8231 2.00437 24.8931 2.18625 24.3569C2.34375 23.8975 2.53688 23.7081 2.96813 23.305C4.85611 21.5329 6.02269 19.1256 6.24375 16.5456L6.71625 12.7356L6.71812 12.7169C6.91095 10.4044 7.9658 8.24879 9.67349 6.67759C11.3812 5.1064 13.617 4.23434 15.9375 4.23438ZM7.6125 32.4531C7.55149 32.2173 7.40111 32.0145 7.19319 31.8876C6.98526 31.7608 6.73613 31.7198 6.49853 31.7734C6.26093 31.827 6.05353 31.971 5.92023 32.1749C5.78693 32.3787 5.73821 32.6265 5.78437 32.8656C6.0302 33.9559 6.55039 34.9653 7.29562 35.7981C7.91134 36.4862 8.66531 37.0365 9.50827 37.4133C10.3512 37.79 11.2642 37.9846 12.1875 37.9844C13.1108 37.9846 14.0238 37.79 14.8667 37.4133C15.7097 37.0365 16.4637 36.4862 17.0794 35.7981C17.2455 35.6129 17.3312 35.3693 17.3176 35.1208C17.3041 34.8724 17.1924 34.6395 17.0072 34.4734C16.822 34.3073 16.5783 34.2216 16.3299 34.2352C16.0815 34.2487 15.8486 34.3604 15.6825 34.5456C15.2428 35.0376 14.7042 35.4312 14.1019 35.7006C13.4997 35.9701 12.8473 36.1094 12.1875 36.1094C11.2685 36.1123 10.3691 35.844 9.60199 35.338C8.83485 34.832 8.2341 34.1109 7.875 33.265C7.763 33.0029 7.67514 32.7312 7.6125 32.4531Z" fill="black"/>
</svg>
