<svg width="22" height="22" viewBox="0 0 22 22" fill="none" xmlns="http://www.w3.org/2000/svg">
<path d="M5.7752 4.40039C5.55639 4.40039 5.34655 4.48731 5.19183 4.64203C5.03711 4.79674 4.9502 5.00659 4.9502 5.22539V13.4754C4.9502 13.6942 5.03711 13.904 5.19183 14.0588C5.34655 14.2135 5.55639 14.3004 5.7752 14.3004C5.994 14.3004 6.20384 14.2135 6.35856 14.0588C6.51328 13.904 6.6002 13.6942 6.6002 13.4754V5.22539C6.6002 5.00659 6.51328 4.79674 6.35856 4.64203C6.20384 4.48731 5.994 4.40039 5.7752 4.40039ZM11.0002 4.40039C10.7814 4.40039 10.5716 4.48731 10.4168 4.64203C10.2621 4.79674 10.1752 5.00659 10.1752 5.22539V10.1754C10.1752 10.3942 10.2621 10.604 10.4168 10.7588C10.5716 10.9135 10.7814 11.0004 11.0002 11.0004C11.219 11.0004 11.4288 10.9135 11.5836 10.7588C11.7383 10.604 11.8252 10.3942 11.8252 10.1754V5.22539C11.8252 5.00659 11.7383 4.79674 11.5836 4.64203C11.4288 4.48731 11.219 4.40039 11.0002 4.40039ZM15.4002 5.22539C15.4002 5.00659 15.4871 4.79674 15.6418 4.64203C15.7965 4.48731 16.0064 4.40039 16.2252 4.40039C16.444 4.40039 16.6538 4.48731 16.8086 4.64203C16.9633 4.79674 17.0502 5.00659 17.0502 5.22539V15.6754C17.0502 15.8942 16.9633 16.104 16.8086 16.2588C16.6538 16.4135 16.444 16.5004 16.2252 16.5004C16.0064 16.5004 15.7965 16.4135 15.6418 16.2588C15.4871 16.104 15.4002 15.8942 15.4002 15.6754V5.22539Z" fill="#191919"/>
<path d="M1.925 0H20.075C21.1376 0 22 0.8624 22 1.925V20.075C22 20.5855 21.7972 21.0752 21.4362 21.4362C21.0752 21.7972 20.5855 22 20.075 22H1.925C1.41446 22 0.924827 21.7972 0.56382 21.4362C0.202812 21.0752 0 20.5855 0 20.075V1.925C0 0.8624 0.8624 0 1.925 0ZM1.65 1.925V20.075C1.65 20.2268 1.7732 20.35 1.925 20.35H20.075C20.1479 20.35 20.2179 20.321 20.2695 20.2695C20.321 20.2179 20.35 20.1479 20.35 20.075V1.925C20.35 1.85207 20.321 1.78212 20.2695 1.73055C20.2179 1.67897 20.1479 1.65 20.075 1.65H1.925C1.85207 1.65 1.78212 1.67897 1.73055 1.73055C1.67897 1.78212 1.65 1.85207 1.65 1.925Z" fill="#191919"/>
</svg>
