<svg width="30" height="30" viewBox="0 0 30 30" fill="none" xmlns="http://www.w3.org/2000/svg">
<path fill-rule="evenodd" clip-rule="evenodd" d="M22.8777 13.0724C22.8777 14.36 22.624 15.6351 22.1313 16.8247C21.6385 18.0143 20.9163 19.0953 20.0058 20.0058C19.0953 20.9163 18.0143 21.6385 16.8247 22.1313C15.6351 22.624 14.36 22.8777 13.0724 22.8777C11.7847 22.8777 10.5097 22.624 9.32008 22.1313C8.13045 21.6385 7.04953 20.9163 6.13903 20.0058C5.22852 19.0953 4.50627 18.0143 4.01351 16.8247C3.52075 15.6351 3.26713 14.36 3.26713 13.0724C3.26713 10.4719 4.30018 7.97787 6.13903 6.13903C7.97787 4.30018 10.4719 3.26713 13.0724 3.26713C15.6729 3.26713 18.1669 4.30018 20.0058 6.13903C21.8446 7.97787 22.8777 10.4719 22.8777 13.0724ZM21.0909 23.4006C18.4639 25.44 15.1584 26.4017 11.8474 26.0897C8.53633 25.7778 5.46862 24.2157 3.26877 21.7215C1.06891 19.2273 -0.0977043 15.9885 0.00641476 12.6644C0.110534 9.3403 1.47756 6.18084 3.8292 3.8292C6.18084 1.47756 9.3403 0.110534 12.6644 0.00641476C15.9885 -0.0977043 19.2273 1.06891 21.7215 3.26877C24.2157 5.46862 25.7778 8.53633 26.0897 11.8474C26.4017 15.1584 25.44 18.4639 23.4006 21.0909L29.4799 27.1702C29.6404 27.3198 29.7692 27.5002 29.8585 27.7007C29.9478 27.9011 29.9959 28.1175 29.9997 28.337C30.0036 28.5564 29.9632 28.7743 29.8811 28.9778C29.7989 29.1813 29.6765 29.3662 29.5213 29.5213C29.3662 29.6765 29.1813 29.7989 28.9778 29.8811C28.7743 29.9632 28.5564 30.0036 28.337 29.9997C28.1175 29.9959 27.9011 29.9478 27.7007 29.8585C27.5002 29.7692 27.3198 29.6404 27.1702 29.4799L21.0909 23.4006Z" fill="#595959"/>
</svg>
