<svg width="22" height="22" viewBox="0 0 22 22" fill="none" xmlns="http://www.w3.org/2000/svg">
<path fill-rule="evenodd" clip-rule="evenodd" d="M11.6193 1.32H10.3807L9.6712 4.1558L8.9595 4.3758C8.54478 4.50359 8.14298 4.67006 7.7594 4.873L7.1005 5.2217L4.5925 3.7169L3.7169 4.5936L5.2217 7.1016L4.873 7.7594C4.66968 8.14294 4.50285 8.54474 4.3747 8.9595L4.1558 9.6712L1.32 10.3807V11.6193L4.1558 12.3288L4.3758 13.0405C4.50267 13.457 4.6684 13.8571 4.873 14.2406L5.2217 14.8995L3.7169 17.4075L4.5936 18.2831L7.1016 16.7783L7.7594 17.127C8.14293 17.3309 8.54297 17.497 8.9595 17.6253L9.6712 17.8442L10.3807 20.68H11.6193L12.3288 17.8442L13.0405 17.6242C13.4552 17.4964 13.857 17.3299 14.2406 17.127L14.8995 16.7783L17.4075 18.2831L18.2831 17.4064L16.7783 14.8984L17.127 14.2406C17.3309 13.8571 17.497 13.457 17.6253 13.0405L17.8442 12.3288L20.68 11.6193V10.3807L17.8442 9.6712L17.6242 8.9595C17.4964 8.54478 17.3299 8.14298 17.127 7.7594L16.7783 7.1005L18.2831 4.5925L17.4064 3.7169L14.8984 5.2217L14.2406 4.873C13.8571 4.66968 13.4553 4.50285 13.0405 4.3747L12.3288 4.1558L11.6193 1.32ZM14.8588 3.707L16.8751 2.497C17.0853 2.3709 17.3317 2.31865 17.575 2.34854C17.8184 2.37843 18.0447 2.48876 18.2182 2.662L19.338 3.7818C19.5112 3.95527 19.6216 4.18164 19.6515 4.42498C19.6814 4.66831 19.6291 4.91466 19.503 5.1249L18.293 7.1412C18.535 7.59587 18.733 8.07253 18.887 8.5712L21.1673 9.1421C21.4052 9.20169 21.6163 9.33905 21.7672 9.53237C21.918 9.72569 22 9.96388 22 10.2091V11.7909C22 12.0361 21.918 12.2743 21.7672 12.4676C21.6163 12.6609 21.4052 12.7983 21.1673 12.8579L18.887 13.4288C18.733 13.9275 18.535 14.4041 18.293 14.8588L19.503 16.8751C19.6291 17.0853 19.6814 17.3317 19.6515 17.575C19.6216 17.8184 19.5112 18.0447 19.338 18.2182L18.2182 19.338C18.0447 19.5112 17.8184 19.6216 17.575 19.6515C17.3317 19.6814 17.0853 19.6291 16.8751 19.503L14.8588 18.293C14.4041 18.535 13.9275 18.733 13.4288 18.887L12.8579 21.1673C12.7983 21.4052 12.6609 21.6163 12.4676 21.7672C12.2743 21.918 12.0361 22 11.7909 22H10.2091C9.96388 22 9.72569 21.918 9.53237 21.7672C9.33905 21.6163 9.20169 21.4052 9.1421 21.1673L8.5712 18.887C8.07696 18.7343 7.59819 18.5354 7.1412 18.293L5.1249 19.503C4.91466 19.6291 4.66831 19.6814 4.42498 19.6515C4.18164 19.6216 3.95527 19.5112 3.7818 19.338L2.662 18.2182C2.48876 18.0447 2.37843 17.8184 2.34854 17.575C2.31865 17.3317 2.3709 17.0853 2.497 16.8751L3.707 14.8588C3.46461 14.4018 3.26573 13.923 3.113 13.4288L0.8327 12.8579C0.595011 12.7984 0.384008 12.6612 0.233159 12.4681C0.0823097 12.275 0.000251507 12.037 0 11.792V10.2102C6.44648e-06 9.96498 0.0819524 9.72679 0.232821 9.53347C0.383689 9.34015 0.594829 9.20279 0.8327 9.1432L3.113 8.5723C3.267 8.07363 3.465 7.59697 3.707 7.1423L2.497 5.126C2.3709 4.91576 2.31865 4.66941 2.34854 4.42608C2.37843 4.18274 2.48876 3.95637 2.662 3.7829L3.7818 2.662C3.95527 2.48876 4.18164 2.37843 4.42498 2.34854C4.66831 2.31865 4.91466 2.3709 5.1249 2.497L7.1412 3.707C7.59587 3.465 8.07253 3.267 8.5712 3.113L9.1421 0.8327C9.20164 0.595011 9.33884 0.384008 9.53194 0.233159C9.72503 0.0823097 9.96297 0.000251507 10.208 0H11.7898C12.035 6.44648e-06 12.2732 0.0819524 12.4665 0.232821C12.6598 0.383689 12.7972 0.594829 12.8568 0.8327L13.4277 3.113C13.9264 3.267 14.403 3.465 14.8577 3.707H14.8588ZM11 14.08C11.8169 14.08 12.6003 13.7555 13.1779 13.1779C13.7555 12.6003 14.08 11.8169 14.08 11C14.08 10.1831 13.7555 9.39972 13.1779 8.82211C12.6003 8.2445 11.8169 7.92 11 7.92C10.1831 7.92 9.39972 8.2445 8.82211 8.82211C8.2445 9.39972 7.92 10.1831 7.92 11C7.92 11.8169 8.2445 12.6003 8.82211 13.1779C9.39972 13.7555 10.1831 14.08 11 14.08ZM11 15.4C9.83305 15.4 8.71389 14.9364 7.88873 14.1113C7.06357 13.2861 6.6 12.167 6.6 11C6.6 9.83305 7.06357 8.71389 7.88873 7.88873C8.71389 7.06357 9.83305 6.6 11 6.6C12.167 6.6 13.2861 7.06357 14.1113 7.88873C14.9364 8.71389 15.4 9.83305 15.4 11C15.4 12.167 14.9364 13.2861 14.1113 14.1113C13.2861 14.9364 12.167 15.4 11 15.4Z" fill="#191919"/>
</svg>
