<svg width="24" height="24" viewBox="0 0 24 24" fill="none" xmlns="http://www.w3.org/2000/svg">
<path d="M12 17.625C12.1783 17.625 12.3271 17.565 12.4463 17.445C12.5654 17.325 12.625 17.1767 12.625 17V11.375C12.625 11.1975 12.565 11.0492 12.445 10.93C12.325 10.8108 12.1762 10.7508 11.9987 10.75C11.8212 10.7492 11.6729 10.8092 11.5537 10.93C11.4346 11.0508 11.375 11.1992 11.375 11.375V17C11.375 17.1775 11.435 17.3258 11.555 17.445C11.675 17.5642 11.8238 17.6242 12.0013 17.625M12 8.97125C12.2183 8.97125 12.4012 8.8975 12.5487 8.75C12.6962 8.6025 12.7696 8.42 12.7687 8.2025C12.7679 7.985 12.6942 7.80208 12.5475 7.65375C12.4008 7.50542 12.2183 7.43167 12 7.4325C11.7817 7.43333 11.5992 7.50708 11.4525 7.65375C11.3058 7.80042 11.2321 7.98333 11.2313 8.2025C11.2304 8.42167 11.3042 8.60417 11.4525 8.75C11.6008 8.89583 11.7833 8.96958 12 8.97125ZM12.0037 23.25C10.4479 23.25 8.98542 22.955 7.61625 22.365C6.24708 21.7742 5.05583 20.9725 4.0425 19.96C3.02917 18.9475 2.22708 17.7575 1.63625 16.39C1.04542 15.0225 0.75 13.5604 0.75 12.0037C0.75 10.4471 1.04542 8.98458 1.63625 7.61625C2.22625 6.24708 3.02667 5.05583 4.0375 4.0425C5.04833 3.02917 6.23875 2.22708 7.60875 1.63625C8.97875 1.04542 10.4412 0.75 11.9963 0.75C13.5512 0.75 15.0138 1.04542 16.3837 1.63625C17.7529 2.22625 18.9442 3.02708 19.9575 4.03875C20.9708 5.05042 21.7729 6.24083 22.3638 7.61C22.9546 8.97917 23.25 10.4412 23.25 11.9963C23.25 13.5512 22.955 15.0138 22.365 16.3837C21.775 17.7537 20.9733 18.945 19.96 19.9575C18.9467 20.97 17.7567 21.7721 16.39 22.3638C15.0233 22.9554 13.5613 23.2508 12.0037 23.25ZM12 22C14.7917 22 17.1562 21.0312 19.0938 19.0938C21.0312 17.1562 22 14.7917 22 12C22 9.20833 21.0312 6.84375 19.0938 4.90625C17.1562 2.96875 14.7917 2 12 2C9.20833 2 6.84375 2.96875 4.90625 4.90625C2.96875 6.84375 2 9.20833 2 12C2 14.7917 2.96875 17.1562 4.90625 19.0938C6.84375 21.0312 9.20833 22 12 22Z" fill="#191919"/>
</svg>
