<svg width="12" height="11" viewBox="0 0 12 11" fill="none" xmlns="http://www.w3.org/2000/svg">
<path d="M1.5 11C1.0875 11 0.734499 10.8618 0.440999 10.5854C0.1475 10.309 0.0005 9.97639 0 9.58748V8.17496C0 7.97485 0.072 7.80724 0.216 7.6721C0.36 7.53697 0.538 7.46917 0.749999 7.4687C0.961999 7.46823 1.14025 7.53603 1.28475 7.6721C1.42925 7.80818 1.501 7.9758 1.5 8.17496V9.58748H10.5V8.17496C10.5 7.97485 10.572 7.80724 10.716 7.6721C10.86 7.53697 11.038 7.46917 11.25 7.4687C11.462 7.46823 11.6402 7.53603 11.7847 7.6721C11.9292 7.80818 12.001 7.9758 12 8.17496V9.58748C12 9.97592 11.8532 10.3086 11.5597 10.5854C11.2662 10.8623 10.913 11.0005 10.5 11H1.5ZM5.25 2.41895L3.84375 3.74319C3.69375 3.88444 3.51575 3.95224 3.30975 3.94659C3.10375 3.94094 2.9255 3.86725 2.775 3.72553C2.6375 3.58428 2.5655 3.41948 2.559 3.23115C2.5525 3.04281 2.6245 2.87802 2.775 2.73677L5.475 0.194232C5.55 0.123606 5.63124 0.0736971 5.71874 0.044505C5.80624 0.015313 5.89999 0.000481705 5.99999 1.08657e-05C6.09999 -0.000459974 6.19374 0.0143713 6.28124 0.044505C6.36874 0.0746387 6.44999 0.124548 6.52499 0.194232L9.22499 2.73677C9.37499 2.87802 9.44699 3.04281 9.44099 3.23115C9.43499 3.41948 9.36299 3.58428 9.22499 3.72553C9.07499 3.86678 8.89699 3.94047 8.69099 3.94659C8.48499 3.95271 8.30674 3.88491 8.15624 3.74319L6.74999 2.41895V7.4687C6.74999 7.66881 6.67799 7.83666 6.53399 7.97227C6.38999 8.10787 6.21199 8.17543 5.99999 8.17496C5.788 8.17449 5.61 8.10669 5.466 7.97156C5.322 7.83643 5.25 7.66881 5.25 7.4687V2.41895Z" fill="#8C8C8C"/>
</svg>
