<?xml version="1.0" encoding="UTF-8"?>
<svg version="1.1" xmlns="http://www.w3.org/2000/svg" width="2048" height="2048" viewBox="0 0 2048 2048">
<!-- 배경 제거 (투명) -->
<path d="M0 0 C18.48 0 36.96 0 56 0 C56.01458252 5.90898193 56.02916504 11.81796387 56.04418945 17.90600586 C56.09459415 37.45978152 56.16105128 57.01347851 56.23571491 76.56717587 C56.28058018 88.41904241 56.32001602 100.27087953 56.34643555 112.12280273 C56.3694909 122.45924811 56.40297249 132.79559964 56.44870156 143.13197047 C56.47253249 148.59925965 56.49132741 154.06645647 56.49761391 159.53379631 C56.50371089 164.69253335 56.52387505 169.85103437 56.55427551 175.00968361 C56.56298244 176.89083078 56.5667938 178.77200888 56.56500816 180.65317535 C56.54695976 208.47064083 62.64206463 233.17151819 82.59375 253.6640625 C86.6407496 258.13987755 86.6407496 258.13987755 91.96875 260.0078125 C94.78575977 258.61014227 96.88324543 256.76006301 99.25 254.6875 C103.98868675 250.61442584 108.85509777 246.78300543 113.875 243.0625 C120.77231516 237.93990385 127.5523185 232.68893547 134.28662109 227.35449219 C136.00657198 225.9948046 137.73093402 224.64093679 139.45703125 223.2890625 C146.13635703 218.05764339 152.78171132 212.78640088 159.39868164 207.47631836 C163.53376397 204.16152357 167.69687565 200.88527552 171.875 197.625 C177.15401312 193.50039522 182.3397145 189.27199697 187.5 185 C195.45319572 178.41709128 203.54019018 172.02512678 211.68847656 165.68652344 C218.7315158 160.20228942 225.68888073 154.63317893 232.5625 148.9375 C238.53602019 143.98858361 244.58890489 139.18515456 250.76171875 134.48828125 C255.01407774 131.2404783 259.17567481 127.88000194 263.34643555 124.52856445 C267.5206248 121.17668567 271.71944222 117.85894516 275.9375 114.5625 C281.02916399 110.58079853 286.05681607 106.52665866 291.0625 102.4375 C296.90066447 97.67135234 302.81179747 93.02382997 308.80078125 88.44921875 C318.11218272 81.33614385 327.26456173 74.02671867 336.31958008 66.59057617 C340.26661069 63.36090958 344.28444495 60.27524422 348.42041016 57.2902832 C350.13660338 56.06828146 350.13660338 56.06828146 351 54 C330.21 54 309.42 54 288 54 C288 36.18 288 18.36 288 0 C378.42 0 468.84 0 562 0 C562 17.82 562 35.64 562 54 C528.34 54 494.68 54 460 54 C460 143.1 460 232.2 460 324 C441.52 324 423.04 324 404 324 C403.67 245.46 403.34 166.92 403 86 C392.02421399 94.60699838 392.02421399 94.60699838 381.1875 103.375 C374.90029226 108.52027879 368.49139922 113.48402015 362.02001953 118.39477539 C357.07839752 122.15226423 352.24446026 126.00730465 347.4609375 129.96484375 C340.58373329 135.65218247 333.55025884 141.14556159 326.52636719 146.6496582 C322.13991165 150.09169264 317.78437054 153.57066892 313.4375 157.0625 C308.83073629 160.76116273 304.19479 164.41373217 299.5 168 C294.09330096 172.13492624 288.76374895 176.35730003 283.46289062 180.62695312 C282.88216797 181.09423828 282.30144531 181.56152344 281.703125 182.04296875 C281.11821289 182.52717285 280.53330078 183.01137695 279.93066406 183.51025391 C278 185 278 185 275.62402344 186.45458984 C271.92121091 188.85659469 269.48383175 190.62168841 267.99121094 194.8737793 C267.38783553 198.33594324 267.03025628 201.74703121 266.75 205.25 C266.46925948 207.7717737 266.18016611 210.29263122 265.8828125 212.8125 C265.67253418 214.65521484 265.67253418 214.65521484 265.45800781 216.53515625 C261.55047754 246.0957477 247.24879542 271.6680595 227 293 C226.39027344 293.69738281 225.78054688 294.39476562 225.15234375 295.11328125 C212.06891516 309.50803298 192.4469687 318.46331297 174.25 324.375 C173.5185376 324.61395996 172.7870752 324.85291992 172.03344727 325.09912109 C159.82688728 328.83149336 147.53298236 329.40867661 134.875 329.375 C134.10375793 329.37445618 133.33251587 329.37391235 132.53790283 329.37335205 C120.59972975 329.33468916 109.46225145 328.57708963 98 325 C97.31486328 324.80164551 96.62972656 324.60329102 95.92382812 324.39892578 C64.0959025 315.07746667 37.15983833 294.29540161 20 266 C19.63471191 265.40960937 19.26942383 264.81921875 18.89306641 264.2109375 C9.1427345 248.20118866 3.31939825 229.81658437 1.25181907 211.24269384 C1.09004194 209.80191104 0.91991082 208.36202821 0.73931986 206.92348248 C0.10302949 201.70000375 -0.14062527 196.58381473 -0.12025452 191.32493591 C-0.12110894 190.50053562 -0.12196337 189.67613532 -0.12284368 188.8267532 C-0.12447822 186.09077817 -0.1190106 183.35486577 -0.11352539 180.61889648 C-0.11324305 178.64715069 -0.11340216 176.67540479 -0.1139679 174.70365906 C-0.11425406 169.36964211 -0.10838658 164.03564778 -0.10139394 158.70163608 C-0.09513027 153.12027016 -0.09455422 147.53890368 -0.09336853 141.95753479 C-0.09026409 131.39678808 -0.08206267 120.83605176 -0.07201904 110.27530962 C-0.06083033 98.24872895 -0.05534051 86.22214778 -0.05032361 74.1955632 C-0.03987931 49.46370172 -0.02154487 24.73185447 0 0 Z " fill="#039FEC" transform="translate(776,860)"/>
<path d="M0 0 C0.88602402 0.00222061 1.77204803 0.00444122 2.68492126 0.00672913 C3.68588333 0.00680466 4.6868454 0.00688019 5.71813965 0.00695801 C6.80666733 0.01211929 7.89519501 0.01728058 9.01670837 0.02259827 C10.67928932 0.02472069 10.67928932 0.02472069 12.37545776 0.02688599 C15.93168281 0.03250418 19.48784596 0.04505977 23.04405212 0.05775452 C25.44834809 0.06276717 27.85264504 0.06733048 30.25694275 0.07142639 C36.16516716 0.08247952 42.07335522 0.09923535 47.98155212 0.12025452 C51.36722582 7.37283046 54.75214638 14.62574596 58.12998962 21.88197327 C64.501497 35.56249575 70.90778055 49.22597861 77.35655212 62.87025452 C77.71120544 63.62072052 78.06585876 64.37118652 78.43125916 65.14439392 C79.87061718 68.19010843 81.31007773 71.23577447 82.74961853 74.28140259 C92.01764158 93.89041308 101.28089934 113.49820469 110.28623962 133.22962952 C114.90291174 143.33778357 119.60044781 153.40862941 124.29014587 163.48304749 C125.69976553 166.51256998 127.10505289 169.54408091 128.50917053 172.57615662 C135.2625923 187.15485989 142.15168721 201.65848444 149.19532776 216.09931946 C154.00096512 225.95609878 158.69593901 235.85212716 163.1815033 245.86000061 C165.58619328 251.19698345 168.1252072 256.44844381 170.75889587 261.67494202 C175.17467773 270.43920692 179.36988637 279.30145042 183.54405212 288.18275452 C184.26719413 289.71733762 184.99050113 291.25184299 185.713974 292.78627014 C187.12525437 295.78051571 188.5334312 298.77618948 189.93907166 301.77308655 C191.30710533 304.6893499 192.68390067 307.60124533 194.06700134 310.51039124 C194.71433722 311.87902575 195.36163712 313.24767728 196.00889587 314.61634827 C196.31025955 315.2458992 196.61162323 315.87545013 196.92211914 316.52407837 C198.98155212 320.89413001 198.98155212 320.89413001 198.98155212 323.12025452 C179.18155212 323.12025452 159.38155212 323.12025452 138.98155212 323.12025452 C119.75566525 283.84451418 119.75566525 283.84451418 112.85655212 268.93275452 C112.36703064 267.87910706 111.87750916 266.82545959 111.37315369 265.73988342 C110.93197205 264.7787262 110.49079041 263.81756897 110.03623962 262.82728577 C109.65967224 262.00720032 109.28310486 261.18711487 108.89512634 260.34217834 C107.98155212 258.12025452 107.98155212 258.12025452 106.98155212 254.12025452 C69.69155212 254.12025452 32.40155212 254.12025452 -6.01844788 254.12025452 C-4.16668115 247.94769878 -2.3359835 242.06038528 0.04405212 236.12025452 C0.65290736 234.58019899 1.26092443 233.03981193 1.86827087 231.49916077 C2.20004333 230.65885315 2.5318158 229.81854553 2.87364197 228.95277405 C4.14140702 225.71156422 5.38519717 222.46169208 6.62608337 219.21009827 C7.07781921 218.02738342 7.52955505 216.84466858 7.99497986 215.62611389 C8.89598133 213.26480179 9.79525942 210.90283131 10.69273376 208.54017639 C11.31136292 206.92272522 11.31136292 206.92272522 11.94248962 205.27259827 C12.3116449 204.3031427 12.68080017 203.33368713 13.06114197 202.33485413 C13.98155212 200.12025452 13.98155212 200.12025452 14.98155212 199.12025452 C17.00649444 199.02615973 19.03475082 199.0028233 21.06187439 199.00672913 C23.01378441 199.00684242 23.01378441 199.00684242 25.00512695 199.00695801 C26.43607114 199.01206543 27.86701495 199.01728144 29.29795837 199.02259827 C30.75384472 199.02446249 32.2097317 199.02588637 33.6656189 199.02688599 C37.50434592 199.03071086 41.34303532 199.04054088 45.18174744 199.05158997 C49.09613028 199.06180474 53.01051918 199.06638375 56.9249115 199.07142639 C64.61047555 199.08216318 72.29600858 199.09923923 79.98155212 199.12025452 C79.62660172 198.37571518 79.62660172 198.37571518 79.26448059 197.61613464 C74.41134543 187.42726369 69.617974 177.21760261 64.9790802 166.929245 C51.26429977 136.52993123 37.10944966 106.32919899 22.98155212 76.12025452 C20.70504878 78.39675786 19.83503 80.34990994 18.50498962 83.28041077 C18.0074115 84.36709045 17.50983337 85.45377014 16.99717712 86.57337952 C16.18506775 88.36002014 16.18506775 88.36002014 15.35655212 90.18275452 C14.18106282 92.74849892 13.00040559 95.31183261 11.81748962 97.87416077 C11.50809448 98.54440277 11.19869934 99.21464478 10.87992859 99.90519714 C7.34913365 107.52641498 3.66615435 115.07255224 -0.01844788 122.62025452 C-5.54890083 133.95863819 -10.94616557 145.34578256 -16.22547913 156.80384827 C-20.066254 165.12078547 -24.01669671 173.38009317 -28.01844788 181.62025452 C-33.09386824 192.07518481 -38.04925179 202.5802086 -42.92396545 213.13050842 C-47.3059507 222.60701814 -51.74434108 232.05598467 -56.20594788 241.49525452 C-56.55978546 242.24408905 -56.91362305 242.99292358 -57.27818298 243.76445007 C-61.41597862 252.51999799 -65.56354129 261.27088117 -69.71766663 270.01869202 C-71.27653771 273.30241461 -72.83504724 276.58630864 -74.39344788 279.87025452 C-74.77164673 280.66690521 -75.14984558 281.46355591 -75.539505 282.28434753 C-80.7636277 293.29309511 -85.92137648 304.32762811 -90.93592834 315.43373108 C-91.33569885 316.31641663 -91.73546936 317.19910217 -92.14735413 318.10853577 C-92.65891052 319.24609314 -92.65891052 319.24609314 -93.18080139 320.40663147 C-94.01844788 322.12025452 -94.01844788 322.12025452 -95.01844788 323.12025452 C-96.85962817 323.21406754 -98.70442429 323.23769406 -100.54798889 323.23377991 C-101.72913773 323.23370438 -102.91028656 323.23362885 -104.12722778 323.23355103 C-105.41261948 323.22838974 -106.69801117 323.22322845 -108.02235413 323.21791077 C-109.98458168 323.21578835 -109.98458168 323.21578835 -111.9864502 323.21362305 C-115.47007647 323.20979861 -118.95366127 323.19996898 -122.43727112 323.18891907 C-125.98971496 323.17870334 -129.54216547 323.17412508 -133.09461975 323.16908264 C-140.0692462 323.15834664 -147.04384505 323.14127111 -154.01844788 323.12025452 C-153.30709709 319.28657743 -152.25956003 316.13726864 -150.60438538 312.59681702 C-150.09842834 311.5094928 -149.59247131 310.42216858 -149.07118225 309.30189514 C-148.24070374 307.54135803 -148.24070374 307.54135803 -147.39344788 305.74525452 C-146.81051835 304.49992751 -146.2278413 303.25448229 -145.645401 302.00892639 C-141.03781702 292.18122189 -136.30830231 282.41298789 -131.56126404 272.65208435 C-126.64532682 262.54190215 -121.85566852 252.38034473 -117.14344788 242.17323303 C-112.49134475 232.10799114 -107.76652698 222.07805613 -103.01844788 212.05775452 C-102.63221252 211.24251312 -102.24597717 210.42727173 -101.84803772 209.58732605 C-97.00576742 199.37116522 -92.12769998 189.1733864 -87.20594788 178.99525452 C-82.45130827 169.1607082 -77.81903847 159.27462705 -73.23719788 149.35853577 C-68.6182531 139.37636128 -63.92124347 129.43223552 -59.20594788 119.49525452 C-57.66028574 116.23748434 -56.11468093 112.97968699 -54.56922913 109.72181702 C-54.18719833 108.9165004 -53.80516754 108.11118378 -53.41156006 107.28146362 C-49.55648275 99.1517767 -45.72248669 91.01223076 -41.89344788 82.87025452 C-41.2355741 81.4718966 -40.5776965 80.07354047 -39.91981506 78.67518616 C-36.94345378 72.34752417 -33.97005746 66.01848641 -31.0020752 59.68688965 C-23.93347327 44.60901924 -16.8216328 29.5538858 -9.58094788 14.55775452 C-9.2533548 13.87774384 -8.92576172 13.19773315 -8.58824158 12.49711609 C-7.6727906 10.59821484 -6.75439747 8.70077051 -5.83485413 6.80384827 C-5.31350891 5.72675598 -4.7921637 4.6496637 -4.25502014 3.53993225 C-2.52275421 0.15029994 -2.52275421 0.15029994 0 0 Z " fill="#3E3E3E" transform="translate(1408.0184478759766,860.8797454833984)"/>
<path d="M0 0 C16.5 0 33 0 50 0 C55.28021182 10.56042363 60.53754674 21.1264075 65.6875 31.75 C66.20281784 32.81231339 66.20281784 32.81231339 66.72854614 33.89608765 C71.92356695 44.61418401 77.00726909 55.37746914 81.99707031 66.19287109 C86.42192625 75.78005895 90.92066979 85.33087029 95.4375 94.875 C100.65514735 105.90279074 105.85120093 116.93989261 111 128 C116.07113807 138.89068651 121.17973595 149.76322115 126.3125 160.625 C126.66711304 161.37547607 127.02172607 162.12595215 127.38708496 162.89916992 C130.65707467 169.81875136 133.92930555 176.73727214 137.20263672 183.65527344 C139.38596738 188.26976821 141.56832254 192.8847234 143.75 197.5 C144.10580139 198.25252045 144.46160278 199.00504089 144.82818604 199.78036499 C149.49154234 209.64630227 154.11059018 219.53116725 158.6875 229.4375 C164.76159652 242.57659036 171.05163713 255.60586255 177.3671875 268.62988281 C183.91336728 282.14116655 190.36134959 295.69679282 196.6875 309.3125 C197.21746582 310.4471167 197.74743164 311.5817334 198.29345703 312.75073242 C198.7779834 313.79849854 199.26250977 314.84626465 199.76171875 315.92578125 C200.19444092 316.85817627 200.62716309 317.79057129 201.07299805 318.7512207 C202 321 202 321 202 323 C182.53 323 163.06 323 143 323 C137.61224889 312.82313678 132.37338468 302.8239194 127.625 292.375 C121.89656482 279.84215371 115.94788179 267.43648011 110 255 C72.71 254.67 35.42 254.34 -3 254 C-0.74975123 243.87388053 -0.74975123 243.87388053 0.77172852 239.86328125 C1.10870255 238.96625488 1.44567657 238.06922852 1.79286194 237.14501953 C2.15125656 236.21028809 2.50965118 235.27555664 2.87890625 234.3125 C3.25103745 233.32878418 3.62316864 232.34506836 4.00657654 231.33154297 C4.78786185 229.26989498 5.57209031 227.20936013 6.35913086 225.14990234 C7.56860201 221.98402757 8.7684098 218.81461623 9.96679688 215.64453125 C10.72860852 213.63780886 11.49095888 211.63129087 12.25390625 209.625 C12.79453453 208.19861206 12.79453453 208.19861206 13.34608459 206.7434082 C13.67990646 205.87159912 14.01372833 204.99979004 14.35766602 204.1015625 C14.65141617 203.33150879 14.94516632 202.56145508 15.24781799 201.76806641 C16 200 16 200 17 199 C19.05556661 198.90586313 21.11440181 198.88257002 23.17211914 198.88647461 C24.13794167 198.88625557 24.13794167 198.88625557 25.12327576 198.8860321 C27.26060303 198.88673115 29.39784413 198.89452309 31.53515625 198.90234375 C33.01346285 198.90420796 34.49177007 198.90563185 35.97007751 198.90663147 C39.86798802 198.91045641 43.76586149 198.92028648 47.66375732 198.93133545 C51.63846333 198.94155008 55.61317529 198.9461292 59.58789062 198.95117188 C67.391944 198.96190878 75.19596682 198.97898491 83 199 C76.25568085 184.43835332 69.50203953 169.88259861 62.61166382 155.38934326 C56.0542523 141.58655079 49.63707646 127.72586454 43.34594727 113.79980469 C42.74369664 112.46677686 42.14140215 111.13376885 41.5390625 109.80078125 C41.09913216 108.82708084 41.09913216 108.82708084 40.65031433 107.83370972 C38.59233589 103.28707515 36.50413274 98.75518454 34.3984375 94.23046875 C34.11335831 93.61713684 33.82827911 93.00380493 33.53456116 92.37188721 C32.19546589 89.49219678 30.85222193 86.61456064 29.50268555 83.73974609 C29.03902588 82.74410645 28.57536621 81.7484668 28.09765625 80.72265625 C27.69039307 79.85390869 27.28312988 78.98516113 26.86352539 78.09008789 C26 76 26 76 26 74 C25.34 74 24.68 74 24 74 C23.74597412 74.8264502 23.49194824 75.65290039 23.23022461 76.50439453 C21.83844435 80.45905018 20.13202041 84.15597493 18.31640625 87.9296875 C17.94914429 88.70030518 17.58188232 89.47092285 17.20349121 90.26489258 C15.99298032 92.80311353 14.77767368 95.33900853 13.5625 97.875 C12.71047251 99.66013597 11.85883495 101.44545809 11.00756836 103.23095703 C9.23321413 106.95161566 7.45717506 110.67146227 5.6796875 114.390625 C1.46355935 123.21380083 -2.73895352 132.04344663 -6.9375 140.875 C-7.33911346 141.71947693 -7.74072693 142.56395386 -8.1545105 143.434021 C-12.82747434 153.26328142 -17.46395012 163.10659421 -22 173 C-32.94549092 196.86849578 -44.32005545 220.54208425 -55.80197144 244.15646362 C-60.62742517 254.08623339 -65.30498911 264.07890999 -69.92041016 274.1081543 C-75.28927873 285.72528933 -80.89918161 297.22328355 -86.52880859 308.71582031 C-86.88524445 309.4449614 -87.2416803 310.17410248 -87.60891724 310.92533875 C-88.27979983 312.29727748 -88.95229982 313.66842689 -89.62667847 315.03865051 C-90.91394447 317.6716394 -92.07173119 320.21519358 -93 323 C-112.47 323 -131.94 323 -152 323 C-151.15438496 318.7719248 -150.20931899 315.96708397 -148.40234375 312.14453125 C-147.58382935 310.40212158 -147.58382935 310.40212158 -146.7487793 308.62451172 C-146.14510722 307.35379948 -145.54134465 306.08313024 -144.9375 304.8125 C-144.30653555 303.47436239 -143.67609429 302.13597796 -143.04614258 300.79736328 C-141.71400593 297.96883254 -140.37873002 295.14181495 -139.04101562 292.31591797 C-137.05619015 288.12172802 -135.08143102 283.9228625 -133.109375 279.72265625 C-130.11347279 273.34329274 -127.11158769 266.96677454 -124.10617065 260.59188843 C-122.02083019 256.16806297 -119.93854832 251.74281454 -117.85856628 247.31646729 C-110.0724015 230.75050464 -102.19799617 214.23332699 -94.16824341 197.78396606 C-88.96708284 187.12410615 -83.90872859 176.41102759 -78.95214844 165.63476562 C-74.24154146 155.43185341 -69.32652987 145.33389723 -64.39447021 135.23669434 C-59.69955879 125.62012196 -55.09227139 115.97490618 -50.625 106.25 C-45.41649475 94.91618627 -39.98569034 83.70157019 -34.5 72.5 C-28.37375855 59.98969056 -22.35239778 47.44629309 -16.52856445 34.79199219 C-11.15690434 23.12682016 -5.58144941 11.56637708 0 0 Z " fill="#3D3D3D" transform="translate(599,861)"/>
<path d="M0 0 C90.42 0 180.84 0 274 0 C274 17.82 274 35.64 274 54 C240.34 54 206.68 54 172 54 C172 143.1 172 232.2 172 324 C153.52 324 135.04 324 116 324 C116 221.7 116 119.4 116 14 C106.8213811 20.88396417 98.22973424 27.4250996 89.671875 34.8984375 C84.82168042 39.06380394 79.70942754 42.89052228 74.59594727 46.72436523 C73.91072998 47.23942627 73.2255127 47.7544873 72.51953125 48.28515625 C71.91214111 48.73769775 71.30475098 49.19023926 70.67895508 49.65649414 C68.9620549 50.92167537 68.9620549 50.92167537 67.79501343 52.56268311 C65.1203456 54.70436361 62.99061582 54.35994638 59.60083008 54.34057617 C58.95665634 54.34101425 58.3124826 54.34145233 57.64878845 54.34190369 C55.52205979 54.33981559 53.39612198 54.31648513 51.26953125 54.29296875 C49.79408702 54.28737283 48.31863722 54.28310271 46.84318542 54.28010559 C42.96160466 54.26865637 39.08036117 54.23918887 35.19891357 54.20599365 C30.54086527 54.16989583 25.88270414 54.15613195 21.22455597 54.13863373 C14.14946947 54.10955116 7.07512287 54.0520655 0 54 C0 36.18 0 18.36 0 0 Z " fill="#3C3C3C" transform="translate(1064,860)"/>
<path d="M0 0 C2.50511123 3.10998579 4.23974635 6.29576606 5.96875 9.890625 C6.5344873 11.06343018 7.10022461 12.23623535 7.68310547 13.44458008 C8.28894766 14.71295277 8.8945742 15.9814285 9.5 17.25 C10.12762408 18.55695338 10.75539262 19.86383738 11.38330078 21.1706543 C15.73049818 30.24031212 19.97471502 39.35530552 24.09570312 48.53027344 C26.53959591 53.9411863 29.113858 59.2692302 31.78515625 64.5703125 C36.19835162 73.32934618 40.39081637 82.18647709 44.5625 91.0625 C45.285642 92.59708311 46.008949 94.13158848 46.73242188 95.66601562 C48.14370225 98.6602612 49.55187907 101.65593497 50.95751953 104.65283203 C52.32555321 107.56909538 53.70234855 110.48099081 55.08544922 113.39013672 C55.73278509 114.75877123 56.38008499 116.12742276 57.02734375 117.49609375 C57.47938927 118.44042015 57.47938927 118.44042015 57.94056702 119.40382385 C60 123.77387549 60 123.77387549 60 126 C40.2 126 20.4 126 0 126 C-19.22588688 86.72425967 -19.22588688 86.72425967 -26.125 71.8125 C-26.61452148 70.75885254 -27.10404297 69.70520508 -27.60839844 68.61962891 C-28.04958008 67.65847168 -28.49076172 66.69731445 -28.9453125 65.70703125 C-29.32187988 64.8869458 -29.69844727 64.06686035 -30.08642578 63.22192383 C-31 61 -31 61 -32 57 C-69.29 57 -106.58 57 -145 57 C-143.14823328 50.82744426 -141.31753563 44.94013076 -138.9375 39 C-138.32864477 37.45994447 -137.72062769 35.91955742 -137.11328125 34.37890625 C-136.78150879 33.53859863 -136.44973633 32.69829102 -136.10791016 31.83251953 C-134.8401451 28.59130971 -133.59635496 25.34143757 -132.35546875 22.08984375 C-131.90373291 20.90712891 -131.45199707 19.72441406 -130.98657227 18.50585938 C-130.08557079 16.14454728 -129.18629271 13.7825768 -128.28881836 11.41992188 C-127.87639893 10.34162109 -127.46397949 9.26332031 -127.0390625 8.15234375 C-126.66990723 7.18288818 -126.30075195 6.21343262 -125.92041016 5.21459961 C-125 3 -125 3 -124 2 C-122.25262815 1.87107391 -120.50010812 1.81147597 -118.74829102 1.77880859 C-117.61219894 1.755681 -116.47610687 1.73255341 -115.30558777 1.70872498 C-114.05103287 1.68883011 -112.79647797 1.66893524 -111.50390625 1.6484375 C-110.1959761 1.62487686 -108.88804596 1.60131622 -107.54048157 1.57704163 C-103.95955489 1.51420069 -100.37854745 1.45958226 -96.7974472 1.40766525 C-94.57093548 1.37512329 -92.34445952 1.34066861 -90.11798096 1.30593872 C-60.0613812 0.84668397 -30.05057997 1.23594031 0 2 C0 1.34 0 0.68 0 0 Z " fill="#F46F13" transform="translate(1547,1058)"/>
<path d="M0 0 C1.77140667 32.03293735 -10.47771589 67.00735592 -31.6640625 91.0546875 C-34.38635868 94.09107658 -37.19255998 97.04238488 -40 100 C-40.60972656 100.69738281 -41.21945312 101.39476562 -41.84765625 102.11328125 C-54.93108484 116.50803298 -74.5530313 125.46331297 -92.75 131.375 C-93.4814624 131.61395996 -94.2129248 131.85291992 -94.96655273 132.09912109 C-106.52047591 135.63193808 -118.11779162 136.35067157 -130.11035156 136.31567383 C-132.36572678 136.312513 -134.61978543 136.33607953 -136.875 136.36132812 C-146.61528999 136.40154435 -155.52195766 135.29778627 -165 133 C-165 132.01 -165 131.02 -165 130 C-162.96530988 127.99540885 -160.94673996 126.18647697 -158.75 124.375 C-157.79806763 123.57485474 -157.79806763 123.57485474 -156.8269043 122.75854492 C-151.9674769 118.70952759 -146.96580345 114.89673654 -141.87109375 111.1484375 C-138.02988475 108.27406342 -134.3394142 105.23383059 -130.640625 102.1796875 C-123.8371876 96.56383237 -116.89439151 91.13950886 -109.88720703 85.78149414 C-106.37131211 83.08294939 -102.91876183 80.32159819 -99.5 77.5 C-95.08736948 73.86005876 -90.5909178 70.34404075 -86.046875 66.87109375 C-82.00492809 63.78019317 -77.99554151 60.65061811 -74 57.5 C-69.52198444 53.97074274 -65.02512632 50.46864448 -60.5 47 C-50.95365781 39.67434259 -41.50109585 32.2448003 -32.1875 24.625 C-25.81401734 19.41175196 -19.32807428 14.36459067 -12.75854492 9.40087891 C-9.63632762 7.0381403 -6.55836852 4.65622652 -3.5703125 2.125 C-1 0 -1 0 0 0 Z " fill="#383B3C" transform="translate(1043,1053)"/>
<path d="M0 0 C18.15 0 36.3 0 55 0 C55.68184976 23.14723952 55.68184976 23.14723952 55.83007812 33.0859375 C55.93136249 39.84478243 56.05056343 46.59967923 56.2824707 53.35546875 C56.46847965 58.80889016 56.56907902 64.25807744 56.61291313 69.71442795 C56.64410487 71.78568574 56.70502858 73.85673491 56.79741096 75.92616653 C57.47083756 91.65029168 57.47083756 91.65029168 53.36307907 97.21916962 C49.38928053 101.30792794 44.91472168 104.52710456 40.1314373 107.600811 C36.92820567 109.7035829 33.97969353 112.09665525 31 114.5 C29.87503025 115.37931138 28.74887573 116.25711092 27.62109375 117.1328125 C22.65016273 121.03784917 17.79764789 125.08939627 12.94726562 129.14257812 C12.27501953 129.70138672 11.60277344 130.26019531 10.91015625 130.8359375 C10.32371338 131.32626465 9.73727051 131.8165918 9.13305664 132.32177734 C6.16905187 134.65376416 3.06891753 136.80791605 0 139 C0 93.13 0 47.26 0 0 Z " fill="#393939" transform="translate(989,860)"/>
<path d="M0 0 C19.8 0 39.6 0 60 0 C69.19644296 18.39288593 69.19644296 18.39288593 72.25390625 24.91015625 C72.60331772 25.6509996 72.95272919 26.39184296 73.31272888 27.15513611 C74.39773057 29.45677387 75.48015488 31.75961203 76.5625 34.0625 C77.285642 35.59708311 78.008949 37.13158848 78.73242188 38.66601562 C80.14370225 41.6602612 81.55187907 44.65593497 82.95751953 47.65283203 C84.32555321 50.56909538 85.70234855 53.48099081 87.08544922 56.39013672 C87.73278509 57.75877123 88.38008499 59.12742276 89.02734375 60.49609375 C89.47938927 61.44042015 89.47938927 61.44042015 89.94056702 62.40382385 C92 66.77387549 92 66.77387549 92 69 C72.2 69 52.4 69 32 69 C12.77411312 29.72425967 12.77411312 29.72425967 5.875 14.8125 C5.38547852 13.75885254 4.89595703 12.70520508 4.39160156 11.61962891 C3.7298291 10.17789307 3.7298291 10.17789307 3.0546875 8.70703125 C2.67812012 7.8869458 2.30155273 7.06686035 1.91357422 6.22192383 C1 4 1 4 0 0 Z " fill="#403E3D" transform="translate(1515,1115)"/>
</svg>
